<svg xmlns="http://www.w3.org/2000/svg" version="1.0" viewBox="0 0 1280 1280"><path d="M615 1A633 633 0 0 0 71 348a634 634 0 0 0 0 585A639 639 0 1 0 614 1zm73 77a560 560 0 0 1 514 520 562 562 0 0 1-605 605A560 560 0 0 1 78 681 561 561 0 0 1 564 81c42-5 83-6 124-3z"/><path d="M624 290c-60 3-110 15-159 39-70 34-120 85-157 160a417 417 0 0 0 15 397c43 66 115 111 210 132a540 540 0 0 0 214 5c66-11 123-36 168-72a307 307 0 0 0 73-93l-41-1h-40l-6 9c-39 46-100 77-177 88-42 7-105 7-146 1-62-10-115-31-153-61-39-32-70-81-84-136-16-63-10-140 16-209a279 279 0 0 1 251-187c16-2 60-2 75 0 66 7 115 28 154 66 36 36 57 80 62 132a228 228 0 0 1-102 216c-12 7-25 11-32 9-10-2-13-10-11-28l21-104 8-39 8-39 8-39 8-39 8-38v-3h-99l-4 20-5 21-6-7a105 105 0 0 0-94-42c-20 0-24 0-33 2-32 7-59 21-84 45a289 289 0 0 0-84 233c4 39 18 70 41 94 20 21 44 34 72 40a141 141 0 0 0 126-36l6-5 2 6c4 12 14 24 25 30 10 4 19 6 38 7 82 2 151-37 202-114a304 304 0 0 0-6-342 304 304 0 0 0-227-117c-18-1-43-2-61-1zm7 228c24 5 44 26 51 54 4 15 5 38 3 58-3 24-11 57-22 83-9 25-18 39-34 54a82 82 0 0 1-50 26c-21 3-39-3-54-19-16-16-23-40-23-75 0-44 16-104 36-134 24-36 60-54 93-47z"/></svg>