<svg xmlns="http://www.w3.org/2000/svg" viewBox="0 0 64 64"><path d="M32 6a26 26 0 0 0-7.8 50.8v-6s-1 .4-2.3.4c-3.6 0-5.1-3.3-5.5-4.9a5 5 0 0 0-1.5-2.5c-.7-.7-1.1-.7-1.1-1 0-.4.7-.4 1-.4 1.6 0 2.8 1.7 3.4 2.6 1.4 2.2 3 2.6 3.7 2.6 1 0 1.8-.1 2.4-.4a7.7 7.7 0 0 1 2.5-4.8c-6.1-1.2-10.4-4.7-10.4-10.4 0-3 1.2-5.6 3.1-7.8-.2-.6-.5-1.7-.5-3.6 0-1.2 0-2.7.7-4.2 0 0 3.7 0 7.2 3.3a18.4 18.4 0 0 1 10.2 0c3.5-3.3 7.2-3.3 7.2-3.3.6 1.5.7 3 .7 4.2 0 2-.3 3.2-.4 3.7 1.9 2.2 3 4.8 3 7.7 0 5.7-4.3 9.2-10.4 10.4a7.7 7.7 0 0 1 2.6 5.8v8.6l-1.8.5A26 26 0 0 0 32 6zM33.8 58zM37.8 57.3zM32 58zM29.8 57.9z"/></svg>