<svg xmlns="http://www.w3.org/2000/svg" viewBox="0 0 50 50"><path fill="none" stroke="#000" stroke-linecap="round" stroke-miterlimit="10" stroke-width="2" d="M25 3a22 22 0 1 0 0 44 22 22 0 1 0 0-44Z"/><path fill="none" stroke="#000" stroke-miterlimit="10" stroke-width="2" d="M16 13a2 2 0 1 0 0 4 2 2 0 1 0 0-4Z"/><path fill="none" stroke="#000" stroke-linejoin="round" stroke-miterlimit="10" stroke-width="2" d="M14 20h4v15h-4zm16.5 0c-1.7 0-3.3.7-4.5 1.8V20h-4v15h4v-7.5c0-2 1.6-3.5 3.5-3.5s3.5 1.6 3.5 3.5V35h4v-8.5c0-3.6-3-6.5-6.5-6.5z"/></svg>