<svg xmlns="http://www.w3.org/2000/svg" version="1.0" viewBox="0 0 1280 1280"><path d="M614.5.6a888 888 0 0 0-53 4.5 633.2 633.2 0 0 0-276 102.2A641.1 641.1 0 0 0 70.9 347.5a634.5 634.5 0 0 0-69 245 885.4 885.4 0 0 0 0 95 640.4 640.4 0 0 0 590.6 590.6c19.3 1.7 75.7 1.7 95 0a640.4 640.4 0 0 0 590.6-590.6c1.7-19.3 1.7-75.7 0-95a640.4 640.4 0 0 0-584.6-590 943.8 943.8 0 0 0-79-1.9zm73.9 77.9a559.6 559.6 0 0 1 346.4 159.9c98 96.3 156.1 221 167.3 359.1 1.5 19.3 1.5 65.7 0 85a560.5 560.5 0 0 1-160.5 352.3 561.1 561.1 0 0 1-359.1 167.3 753.2 753.2 0 0 1-85 0 560.8 560.8 0 0 1-359.1-167.2A560.3 560.3 0 0 1 77.9 682.5a753.2 753.2 0 0 1 0-85 561.4 561.4 0 0 1 167.2-359.1A559.4 559.4 0 0 1 564 81.6a576 576 0 0 1 124.4-3.1z"/><path d="M506 206.2a805.5 805.5 0 0 0-71.6 41.7 26.5 26.5 0 0 0-5 30.9c5.4 10.5 114.9 199.8 117.5 203.2a29.2 29.2 0 0 0 27.6 9.1c4.6-1.2 66.2-36.5 71.5-40.9a28.6 28.6 0 0 0 8.1-26.7c-.6-2.2-27.4-49.7-59.6-105.5-47.4-82.2-59.4-102.3-63.1-105.7a26.3 26.3 0 0 0-25.4-6.1zM394.2 293.3a227.3 227.3 0 0 0-43.5 31.7c-33.4 31.9-42.3 63.6-36.6 129.5C322.3 548.7 369 674.6 439 791c65.7 109.2 144.6 199.6 217.5 249.2 37.5 25.5 60.8 34.3 91 34.3 20.2 0 37-4 60.6-14.5 11-5 36.5-18.5 37.4-19.9.3-.6-113.7-199.2-119.8-208.8-.6-1-1.7-.8-4.7.7a93.9 93.9 0 0 1-27.2 8c-32.7 4-71.4-14.8-107.3-52.2-44.4-46.2-79.6-114.3-90.5-175.3-8.1-44.8-2-80.9 17.5-103.8a88.9 88.9 0 0 1 16.6-13.9c.8-.3-21.7-40.1-59-104.9a16811 16811 0 0 0-61-105.1 78 78 0 0 0-15.9 8.5zM822 747c-5.5.7-4.6.3-41.3 21.4a419.2 419.2 0 0 0-33.3 20.4 27.6 27.6 0 0 0-7.2 27.3c1.7 5 115.5 202.6 119.7 207.8 7.1 9 21.2 11.7 32.6 6.2 8.6-4.1 61.4-34.7 65.5-38 5.6-4.5 9-12 9-20.2 0-3.7-.5-8.1-1.2-9.6-3.4-8-117.5-204.3-120.6-207.5A25.7 25.7 0 0 0 822 747z"/></svg>